<?xml version="1.0" encoding="utf-8"?>
<svg version="1.1" id="Vrstva_1" xmlns="http://www.w3.org/2000/svg" xmlns:xlink="http://www.w3.org/1999/xlink" x="0px" y="0px"
	 viewBox="0 0 50 40.63" style="enable-background:new 0 0 50 40.63;" xml:space="preserve">
<style type="text/css">
</style>
<path id="XMLID_3509_" d="M25.01,20.97c0.57,0,1.13-0.15,1.68-0.44L49.02,8.39V5.41c0-2.74-2.16-4.98-4.8-4.98H5.81
	c-2.64,0-4.8,2.24-4.8,4.98v2.99l22.33,12.13C23.88,20.82,24.45,20.97,25.01,20.97z" style="fill: #4bcccc"/>
<path id="XMLID_3471_" d="M5.81,40.27h38.41c2.64,0,4.8-2.24,4.8-4.98v-24.1L27.79,22.73c-0.9,0.49-1.84,0.73-2.78,0.73
	c-0.94,0-1.88-0.24-2.78-0.73L1.01,11.19v24.1C1.01,38.03,3.17,40.27,5.81,40.27z" style="fill: #4bcccc"/>
</svg>
